<mxfile host="app.diagrams.net" modified="2021-11-11T07:26:23.016Z" agent="5.0 (Windows NT 6.1; WOW64) AppleWebKit/537.36 (KHTML, like Gecko) Chrome/70.0.3538.25 Safari/537.36 Core/1.70.3877.400 QQBrowser/10.8.4506.400" etag="PZf-XfkiFyb7N6L7PMZN" version="15.7.1" type="github">
  <diagram id="C5RBs43oDa-KdzZeNtuy" name="Page-1">
    <mxGraphModel dx="1136" dy="789" grid="1" gridSize="10" guides="1" tooltips="1" connect="1" arrows="1" fold="1" page="1" pageScale="1" pageWidth="827" pageHeight="1169" math="0" shadow="0">
      <root>
        <mxCell id="WIyWlLk6GJQsqaUBKTNV-0" />
        <mxCell id="WIyWlLk6GJQsqaUBKTNV-1" parent="WIyWlLk6GJQsqaUBKTNV-0" />
        <mxCell id="yYSWTMf_72ZH8YwoW5_q-0" value="中下游学生" style="shape=umlActor;verticalLabelPosition=bottom;verticalAlign=top;html=1;outlineConnect=0;" vertex="1" parent="WIyWlLk6GJQsqaUBKTNV-1">
          <mxGeometry x="70" y="180" width="30" height="60" as="geometry" />
        </mxCell>
        <mxCell id="yYSWTMf_72ZH8YwoW5_q-18" style="edgeStyle=orthogonalEdgeStyle;rounded=0;orthogonalLoop=1;jettySize=auto;html=1;exitX=0.5;exitY=0.5;exitDx=0;exitDy=0;exitPerimeter=0;entryX=1;entryY=0.5;entryDx=0;entryDy=0;" edge="1" parent="WIyWlLk6GJQsqaUBKTNV-1" source="yYSWTMf_72ZH8YwoW5_q-7" target="yYSWTMf_72ZH8YwoW5_q-15">
          <mxGeometry relative="1" as="geometry" />
        </mxCell>
        <mxCell id="yYSWTMf_72ZH8YwoW5_q-19" style="edgeStyle=orthogonalEdgeStyle;rounded=0;orthogonalLoop=1;jettySize=auto;html=1;exitX=0.5;exitY=0.5;exitDx=0;exitDy=0;exitPerimeter=0;" edge="1" parent="WIyWlLk6GJQsqaUBKTNV-1" source="yYSWTMf_72ZH8YwoW5_q-7" target="yYSWTMf_72ZH8YwoW5_q-14">
          <mxGeometry relative="1" as="geometry" />
        </mxCell>
        <mxCell id="yYSWTMf_72ZH8YwoW5_q-21" style="edgeStyle=orthogonalEdgeStyle;rounded=0;orthogonalLoop=1;jettySize=auto;html=1;exitX=0.5;exitY=0.5;exitDx=0;exitDy=0;exitPerimeter=0;entryX=1;entryY=0.5;entryDx=0;entryDy=0;" edge="1" parent="WIyWlLk6GJQsqaUBKTNV-1" source="yYSWTMf_72ZH8YwoW5_q-7" target="yYSWTMf_72ZH8YwoW5_q-13">
          <mxGeometry relative="1" as="geometry" />
        </mxCell>
        <mxCell id="yYSWTMf_72ZH8YwoW5_q-7" value="大二大三的长相，&lt;br&gt;30年教学经验的老师" style="shape=umlActor;verticalLabelPosition=bottom;verticalAlign=top;html=1;outlineConnect=0;" vertex="1" parent="WIyWlLk6GJQsqaUBKTNV-1">
          <mxGeometry x="750" y="190" width="70" height="70" as="geometry" />
        </mxCell>
        <mxCell id="yYSWTMf_72ZH8YwoW5_q-13" value="生产PPT&amp;nbsp;" style="ellipse;whiteSpace=wrap;html=1;fillColor=#80FF00;" vertex="1" parent="WIyWlLk6GJQsqaUBKTNV-1">
          <mxGeometry x="500" y="60" width="140" height="70" as="geometry" />
        </mxCell>
        <mxCell id="yYSWTMf_72ZH8YwoW5_q-14" value="查找PPT、Ai课件" style="ellipse;whiteSpace=wrap;html=1;fillColor=#80FF00;" vertex="1" parent="WIyWlLk6GJQsqaUBKTNV-1">
          <mxGeometry x="500" y="190" width="140" height="70" as="geometry" />
        </mxCell>
        <mxCell id="yYSWTMf_72ZH8YwoW5_q-15" value="使用PPT、Ai课件上课" style="ellipse;whiteSpace=wrap;html=1;fillColor=#80FF00;" vertex="1" parent="WIyWlLk6GJQsqaUBKTNV-1">
          <mxGeometry x="500" y="310" width="140" height="70" as="geometry" />
        </mxCell>
      </root>
    </mxGraphModel>
  </diagram>
</mxfile>
